<!DOCTYPE svg PUBLIC "-//W3C//DTD SVG 1.1//EN" "http://www.w3.org/Graphics/SVG/1.1/DTD/svg11.dtd">

<!-- Uploaded to: SVG Repo, www.svgrepo.com, Transformed by: SVG Repo Mixer Tools -->
<svg fill="#000000" height="64px" width="64px" version="1.1" id="Layer_1" xmlns="http://www.w3.org/2000/svg" xmlns:xlink="http://www.w3.org/1999/xlink" viewBox="-51.2 -51.2 614.40 614.40" xml:space="preserve">

<g id="SVGRepo_bgCarrier" stroke-width="0"/>

<g id="SVGRepo_tracerCarrier" stroke-linecap="round" stroke-linejoin="round"/>

<g id="SVGRepo_iconCarrier"> <g> <g> <g> <path d="M256,0C148.341,0,60.754,87.586,60.755,195.245c0,56.66,16.898,115.289,50.225,174.26 c28.99,51.297,65.23,93.243,90.526,119.398C215.912,503.797,235.265,512,256,512c20.735,0,40.088-8.203,54.494-23.098 c25.296-26.156,61.536-68.101,90.526-119.398c33.327-58.971,50.225-117.6,50.225-174.26C451.245,87.586,363.658,0,256,0z M288.632,467.755c-8.624,8.917-20.212,13.828-32.63,13.828c-12.418,0-24.006-4.911-32.631-13.828 c-49.372-51.047-132.198-154.33-132.198-272.51c0-90.886,73.941-164.828,164.828-164.828c90.885,0,164.828,73.941,164.83,164.828 C420.83,313.426,338.003,416.708,288.632,467.755z"/> <path d="M256,89.691c-58.203,0-105.554,47.352-105.554,105.555c0,58.202,47.351,105.554,105.554,105.554 s105.554-47.352,105.554-105.555C361.554,137.043,314.203,89.691,256,89.691z M256,270.381c-41.43,0-75.136-33.706-75.136-75.136 c0-41.43,33.706-75.136,75.136-75.136c41.43,0,75.136,33.706,75.136,75.136C331.136,236.675,297.43,270.381,256,270.381z"/> </g> </g> </g> </g>

</svg>